# xmcd
#
# Track frame offsets:
#	150
#	6635
#	26725
#	46352
#	77112
#	101757
#	133870
#	157112
#	188172
#	214022
#	237652
#	262875
#
# Disc length: 3890 seconds
#
# Revision: 2
# Processed by: cddbd v1.5.2PL0 Copyright (c) Steve Scherf et al.
# Submitted via: EasyCDDAExtractor 12.0.1.1
#
DISCID=ac0f300c
DTITLE=India - Mega Mix
DYEAR=1996
DGENRE=Latin
TTITLE0=Intro
TTITLE1=I Just Want To Hang Around You
TTITLE2=O Ella O Yo
TTITLE3=No Me Conviene
TTITLE4=Nunca Voy A Olvidarte
TTITLE5=Ese Hombre
TTITLE6=Dicen Que Soy
TTITLE7=Vivir Lo Nuestro
TTITLE8=Mi Primera Rumba
TTITLE9=La India Con Lavoe
TTITLE10=To Be In Love
TTITLE11=Mega Radio Mix
EXTD=
EXTT0=
EXTT1=
EXTT2=
EXTT3=
EXTT4=
EXTT5=
EXTT6=
EXTT7=
EXTT8=
EXTT9=
EXTT10=
EXTT11=
PLAYORDER=
